<svg height="526" width="720" xmlns="http://www.w3.org/2000/svg">
<rect height="526" fill="#555" width="720"></rect>
<text fill="#7f7" font-family="Courier New" font-size="12" xml:space="preserve">
<tspan x="10" y="26">3 megabytes installed</tspan>
<tspan x="10" y="42"></tspan>
<tspan x="10" y="58">node_modules</tspan>
<tspan x="10" y="74">└─┬ webpack-livereload-plugin@0.11.0 </tspan>
<tspan x="10" y="90">  └─┬ tiny-lr@0.2.1 </tspan>
<tspan x="10" y="106">    ├─┬ body-parser@1.14.2 </tspan>
<tspan x="10" y="122">    │ ├── bytes@2.2.0 </tspan>
<tspan x="10" y="138">    │ ├── content-type@1.0.2 </tspan>
<tspan x="10" y="154">    │ ├── depd@1.1.0 </tspan>
<tspan x="10" y="170">    │ ├─┬ http-errors@1.3.1 </tspan>
<tspan x="10" y="186">    │ │ ├── inherits@2.0.3 </tspan>
<tspan x="10" y="202">    │ │ └── statuses@1.3.1 </tspan>
<tspan x="10" y="218">    │ ├── iconv-lite@0.4.13 </tspan>
<tspan x="10" y="234">    │ ├─┬ on-finished@2.3.0 </tspan>
<tspan x="10" y="250">    │ │ └── ee-first@1.1.1 </tspan>
<tspan x="10" y="266">    │ ├── qs@5.2.0 </tspan>
<tspan x="10" y="282">    │ ├─┬ raw-body@2.1.7 </tspan>
<tspan x="10" y="298">    │ │ ├── bytes@2.4.0 </tspan>
<tspan x="10" y="314">    │ │ └── unpipe@1.0.0 </tspan>
<tspan x="10" y="330">    │ └─┬ type-is@1.6.15 </tspan>
<tspan x="10" y="346">    │   ├── media-typer@0.3.0 </tspan>
<tspan x="10" y="362">    │   └─┬ mime-types@2.1.15 </tspan>
<tspan x="10" y="378">    │     └── mime-db@1.27.0 </tspan>
<tspan x="10" y="394">    ├─┬ debug@2.2.0 </tspan>
<tspan x="10" y="410">    │ └── ms@0.7.1 </tspan>
<tspan x="10" y="426">    ├─┬ faye-websocket@0.10.0 </tspan>
<tspan x="10" y="442">    │ └─┬ websocket-driver@0.6.5 </tspan>
<tspan x="10" y="458">    │   └── websocket-extensions@0.1.1 </tspan>
<tspan x="10" y="474">    ├── livereload-js@2.2.2 </tspan>
<tspan x="10" y="490">    ├── parseurl@1.3.1 </tspan>
<tspan x="10" y="506">    └── qs@5.1.0</tspan>
</text>
</svg>
